# xmcd
#
# Track frame offsets: 
#        150
#        15557
#        34006
#        53540
#        71403
#        85432
#        117346
#        135661
#
# Disc length: 2356 seconds
#
# Revision: 1
# Processed by: cddbd v1.5.2PL0 Copyright (c) Steve Scherf et al.
# Submitted via: ExactAudioCopy v0.99pb5
#
DISCID=61093208
DTITLE=The Peace - Black Power
DYEAR=2016
DGENRE=Rock
TTITLE0=Black Power
TTITLE1=I Have Got No Money
TTITLE2=This Is The Time Now
TTITLE3=I Need Mercy
TTITLE4=Peaceful Man
TTITLE5=Umbwalwa Ne Chamba
TTITLE6=I Don't Know
TTITLE7=Get On The Way
EXTD=
EXTT0=
EXTT1=
EXTT2=
EXTT3=
EXTT4=
EXTT5=
EXTT6=
EXTT7=
PLAYORDER=
